<svg id="Layer_1" data-name="Layer 1" xmlns="http://www.w3.org/2000/svg" viewBox="0 0 512 512"><title>Artboard 1</title><path d="M80.64,80.64c-96.88,96.87-96.88,253.85,0,350.72s253.85,96.88,350.72,0,96.88-253.85,0-350.72S177.51-16.24,80.64,80.64Zm297,93.34a12,12,0,0,1,0,17L312.57,256l65.05,65.05a12,12,0,0,1,0,17L338,377.62a12,12,0,0,1-17,0L256,312.57,191,377.62a12,12,0,0,1-17,0L134.38,338a12,12,0,0,1,0-17L199.43,256,134.38,191a12,12,0,0,1,0-17l39.6-39.6a12,12,0,0,1,17,0L256,199.43l65.05-65.05a12,12,0,0,1,17,0Z"/></svg>