<svg id="Layer_1" data-name="Layer 1" xmlns="http://www.w3.org/2000/svg" viewBox="0 0 512.71 512"><title>Artboard 1</title><circle cx="224" cy="128" r="128"/><path d="M425.48,495.46h-59a25,25,0,0,1-25-25V410.66h-59a25,25,0,0,1-25-25v-59a25,25,0,0,1,25-25h59V290.91A134.94,134.94,0,0,0,313.6,288H296.9a174.08,174.08,0,0,1-145.8,0H134.4A134.43,134.43,0,0,0,0,422.4V464a48,48,0,0,0,48,48H400a48,48,0,0,0,39.63-20.92A25,25,0,0,1,425.48,495.46Z"/><path d="M492,325H428V261a16,16,0,0,0-16-16H380a16,16,0,0,0-16,16v64H300a16,16,0,0,0-16,16v32a16,16,0,0,0,16,16h64v64a16,16,0,0,0,16,16h32a16,16,0,0,0,16-16V389h64a16,16,0,0,0,16-16V341A16,16,0,0,0,492,325Z"/></svg>