<svg id="Layer_1" data-name="Layer 1" xmlns="http://www.w3.org/2000/svg" viewBox="0 0 640 520"><defs><style>.cls-1{stroke:#000;stroke-miterlimit:10;stroke-width:6px;}</style></defs><title>Artboard 1</title><path d="M226.71,260a128,128,0,1,0-128-128A128,128,0,0,0,226.71,260Zm89.6,32h-16.7a174.08,174.08,0,0,1-145.8,0h-16.7A134.43,134.43,0,0,0,2.71,426.4V468a48,48,0,0,0,48,48h352a48,48,0,0,0,48-48V426.4A134.43,134.43,0,0,0,316.31,292Z"/><path class="cls-1" d="M414.64,221.74l99.64,99.64a12.25,12.25,0,0,0,17.39,0l99.64-99.69a12.25,12.25,0,0,0,0-17.38l-11.39-11.39a12.23,12.23,0,0,0-17.59.21L544,254.38V17.05a12,12,0,0,0-12-12H513.93a12,12,0,0,0-11.95,12V254.44l-58.36-61.26A12.32,12.32,0,0,0,426,193l-11.39,11.39A12.25,12.25,0,0,0,414.64,221.74Z"/></svg>