<svg id="Layer_1" data-name="Layer 1" xmlns="http://www.w3.org/2000/svg" viewBox="0 0 516 516"><title>Artboard 1</title><path d="M178.11,218.59h160a16,16,0,0,0,16-16v-16a16,16,0,0,0-16-16h-160a16,16,0,0,0-16,16v16A16,16,0,0,0,178.11,218.59Zm-16,80a16,16,0,0,0,16,16h160a16,16,0,0,0,16-16v-16a16,16,0,0,0-16-16h-160a16,16,0,0,0-16,16Zm96,121.13a79.89,79.89,0,0,1-46.86-15.19L2.11,253.45V466.59a48,48,0,0,0,48,48h416a48,48,0,0,0,48-48V253.45L305,404.53a80,80,0,0,1-46.86,15.19ZM495.72,165.54c-8.85-6.94-17.24-13.47-29.61-22.81V98.59a48,48,0,0,0-48-48H340.56l-9-6.56C314.71,31.76,281.31,2.24,258.11,2.59,234.91,2.24,201.52,31.76,184.7,44l-9,6.56H98.11a48,48,0,0,0-48,48v44.14c-12.37,9.33-20.76,15.87-29.61,22.81A48,48,0,0,0,2.11,203.31V214l96,69.35V98.59h320V283.31l96-69.35V203.31a48,48,0,0,0-18.39-37.77Z"/></svg>