<?xml version="1.0" encoding="utf-8"?>
<!-- Generator: Adobe Illustrator 24.0.0, SVG Export Plug-In . SVG Version: 6.00 Build 0)  -->
<svg version="1.1" id="Layer_1" xmlns="http://www.w3.org/2000/svg" xmlns:xlink="http://www.w3.org/1999/xlink" x="0px" y="0px"
	 viewBox="0 0 306 416" style="enable-background:new 0 0 306 416;" xml:space="preserve">
<style type="text/css">
	.st0{fill:#999999;}
</style>
<title>Artboard 1</title>
<g id="Layer_2_1_">
	<path class="st0" d="M164.9,6.5l134.3,134.3c6.5,6.5,6.5,17,0,23.4l0,0l-15.7,15.7c-6.5,6.5-17,6.5-23.4,0l-107-106.4L46.2,179.9
		c-6.5,6.5-17,6.5-23.4,0L7.1,164.2c-6.5-6.5-6.5-17,0-23.4L141.4,6.5C147.9,0,158.4,0,164.9,6.5C164.8,6.5,164.8,6.5,164.9,6.5
		L164.9,6.5z"/>
</g>
<g id="Layer_2_copy">
	<path class="st0" d="M141.4,409.4L7.1,275.1c-6.5-6.5-6.5-17,0-23.4L22.8,236c6.5-6.5,17-6.5,23.4,0l106.9,106.4L260,235.9
		c6.5-6.5,17-6.5,23.4,0l15.7,15.7c6.5,6.5,6.5,17,0,23.4l0,0L164.9,409.4C158.4,415.8,147.9,415.8,141.4,409.4L141.4,409.4z"/>
</g>
</svg>
