<svg id="Layer_1" data-name="Layer 1" xmlns="http://www.w3.org/2000/svg" viewBox="0 0 640 520"><defs><style>.cls-1{stroke:#000;stroke-miterlimit:10;stroke-width:6px;}</style></defs><title>Artboard 1</title><path d="M226.71,260a128,128,0,1,0-128-128A128,128,0,0,0,226.71,260Zm89.6,32h-16.7a174.1,174.1,0,0,1-145.8,0h-16.7A134.43,134.43,0,0,0,2.71,426.4V468a48,48,0,0,0,48,48h352a48,48,0,0,0,48-48V426.4A134.43,134.43,0,0,0,316.31,292Z"/><path class="cls-1" d="M631.31,108.31,531.67,8.67a12.24,12.24,0,0,0-17.32-.06l-.07.06-99.64,99.69a12.26,12.26,0,0,0-.06,17.33l.06,0L426,137.13a12.24,12.24,0,0,0,17.3.09l.29-.3L502,75.67V313a12,12,0,0,0,12,12H532a12,12,0,0,0,12-12V75.61l58.36,61.26a12.32,12.32,0,0,0,17.42.38l.2-.2,11.39-11.39a12.25,12.25,0,0,0,0-17.32Z"/></svg>