<svg xmlns="http://www.w3.org/2000/svg" viewBox="0 0 136.73 175.27"><defs><style>.cls-1{fill:none;stroke:#78adff;stroke-width:0.5px;}.cls-1,.cls-3{stroke-miterlimit:10;}.cls-2{fill:#78adff;}.cls-3{fill:#fff;stroke:#fff;stroke-width:10px;}.cls-4{fill:#393;}.cls-5{fill:#f93;}</style></defs><title>Artboard 13</title><g id="Layer_11" data-name="Layer 11"><path class="cls-1" d="M68.17,10.45c-33.69,0-60.94,24.77-60.94,55.4,0,41.54,60.94,102.87,60.94,102.87s60.94-61.33,60.94-102.87C129.11,35.22,101.86,10.45,68.17,10.45Z"/></g><g id="Layer_3_copy" data-name="Layer 3 copy"><path class="cls-2" d="M85.42,12.89c15.71,6.1,26.73,20.27,26.73,36.78,0,22.08-19.69,40-44,40s-44-17.9-44-40c0-16.51,11-30.68,26.72-36.78C25.68,19.65,7.3,40.82,7.3,66c0,41.5,60.87,102.77,60.87,102.77S129,107.46,129,66C129,40.82,110.65,19.65,85.42,12.89Z"/><g id="Layer_3_copy_3" data-name="Layer 3 copy 3"><circle class="cls-3" cx="68.17" cy="55.17" r="45.57"/><path class="cls-4" d="M68.17,64.86a16.34,16.34,0,1,0-11.56-4.79A16.28,16.28,0,0,0,68.17,64.86Zm14.52,3.63H76.44a20,20,0,0,1-4,1.34,19.91,19.91,0,0,1-8.6,0,20,20,0,0,1-4-1.34H53.64A14.51,14.51,0,0,0,39.12,83v1.82a5.43,5.43,0,0,0,5.44,5.44l23.61,3.55,23.6-3.55a5.45,5.45,0,0,0,5.45-5.44V83A14.53,14.53,0,0,0,82.69,68.49Z"/><path class="cls-5" d="M68.17,19.59A35.58,35.58,0,1,1,32.6,55.17,35.62,35.62,0,0,1,68.17,19.59m0-10a45.58,45.58,0,1,0,45.57,45.58A45.58,45.58,0,0,0,68.17,9.59Z"/></g></g></svg>