<svg id="BG_White" data-name="BG White" xmlns="http://www.w3.org/2000/svg" viewBox="0 0 1209.16 358.84"><defs><style>.cls-1{fill:#fff;}.cls-2{fill:#393;}.cls-3{fill:#f93;}.cls-4{fill:none;stroke:#03f;stroke-miterlimit:10;stroke-width:8px;}.cls-5{fill:#78adff;}.cls-6{fill:#333;}</style></defs><title>lt-logo-default</title><g id="Layer_4_copy_3" data-name="Layer 4 copy 3"><rect class="cls-1" x="-16.99" y="-13.28" width="1244.14" height="660.06"/></g><circle class="cls-2" cx="524.39" cy="151.72" r="71.72"/><ellipse class="cls-3" cx="527.37" cy="162.7" rx="64.19" ry="49.65" transform="translate(-24.14 142.04) rotate(-15)"/><path class="cls-1" d="M532.13,180.45a31.3,31.3,0,0,0,22.16-38.38C548.21,119.36,509,94,509,94s-21.29,41.63-15.21,64.33A31.32,31.32,0,0,0,532.13,180.45Z"/><polyline class="cls-4" points="544.09 151.84 523.15 147.1 517.2 124.88"/><path class="cls-5" d="M526.31,80.24a51.77,51.77,0,1,1-39.25,10.51,71.64,71.64,0,0,0-31.82,79.7c13.92,51.92,103.69,110,103.69,110s48.7-95.21,34.78-147.13A71.62,71.62,0,0,0,526.31,80.24Z"/><path class="cls-6" d="M660.18,154.13v78.68H636.24V154.13h-28V133.69h79.94v20.44Z"/><path class="cls-6" d="M753.56,198.79v2.8a24.86,24.86,0,0,1-.14,2.66H702.88a12.06,12.06,0,0,0,1.75,5.32,15,15,0,0,0,3.78,4.13,18.55,18.55,0,0,0,11.13,3.71,19.24,19.24,0,0,0,9.24-2,18.24,18.24,0,0,0,6.16-5.25l16,10.08a32.31,32.31,0,0,1-12.95,11,42.83,42.83,0,0,1-18.69,3.85,44.39,44.39,0,0,1-14.84-2.45,35.9,35.9,0,0,1-12.25-7.14,32.86,32.86,0,0,1-8.26-11.55,38.61,38.61,0,0,1-3-15.68,39.25,39.25,0,0,1,2.94-15.47,35,35,0,0,1,8-11.76,35.61,35.61,0,0,1,11.9-7.49,40.75,40.75,0,0,1,14.84-2.66,37.73,37.73,0,0,1,14.14,2.59,30.94,30.94,0,0,1,11.06,7.49,34.75,34.75,0,0,1,7.21,11.9A46,46,0,0,1,753.56,198.79ZM732.42,190a13.81,13.81,0,0,0-3.43-9.38q-3.43-3.92-10.29-3.92a17.39,17.39,0,0,0-6.16,1.05,16,16,0,0,0-4.9,2.87,14.32,14.32,0,0,0-3.36,4.27,12.49,12.49,0,0,0-1.4,5.11Z"/><path class="cls-6" d="M856.88,232.81V194.73a37.25,37.25,0,0,0-.42-5.67,13.7,13.7,0,0,0-1.54-4.69,9,9,0,0,0-3-3.15,9.26,9.26,0,0,0-5-1.19,10,10,0,0,0-5.11,1.26,11.34,11.34,0,0,0-3.64,3.36,14.57,14.57,0,0,0-2.17,4.83,22.58,22.58,0,0,0-.7,5.67v37.66h-23V193.05c0-4-.8-7.18-2.38-9.52s-4.11-3.5-7.56-3.5a9.72,9.72,0,0,0-8.47,4.34,18.2,18.2,0,0,0-3,10.64v37.8h-23.1V163.09H790.1v9.66h.28a24.47,24.47,0,0,1,3.15-4.34,20,20,0,0,1,4.55-3.71,25.72,25.72,0,0,1,5.95-2.59,25.24,25.24,0,0,1,7.21-1,25,25,0,0,1,12.81,3.08,21.19,21.19,0,0,1,8.19,8.82,26.55,26.55,0,0,1,9-8.68,25.82,25.82,0,0,1,13.3-3.22,25.17,25.17,0,0,1,12,2.59,22.33,22.33,0,0,1,7.77,6.72,28.09,28.09,0,0,1,4.27,9.24,40,40,0,0,1,1.33,10v43.12Z"/><path class="cls-6" d="M974.76,197.67a44,44,0,0,1-2.24,14A36.17,36.17,0,0,1,966,223.5a32.17,32.17,0,0,1-10.43,8.19,30.83,30.83,0,0,1-14,3.08,29.18,29.18,0,0,1-12.18-2.59,21.6,21.6,0,0,1-9-7.07h-.28v41.3h-23V163.09H919v8.54h.42a28.21,28.21,0,0,1,8.89-7.35,27.08,27.08,0,0,1,13.37-3.15,31.46,31.46,0,0,1,13.72,2.94,31.07,31.07,0,0,1,10.43,8,36.49,36.49,0,0,1,6.58,11.69A42.19,42.19,0,0,1,974.76,197.67Zm-22.26,0a21.11,21.11,0,0,0-1-6.58,17.29,17.29,0,0,0-3.08-5.67,15.43,15.43,0,0,0-12.25-5.53,15.5,15.5,0,0,0-7,1.54,16.6,16.6,0,0,0-5.25,4.06,19,19,0,0,0,0,24.64,16.46,16.46,0,0,0,5.25,4.06,15.37,15.37,0,0,0,7,1.54,15.76,15.76,0,0,0,7.14-1.54,15.18,15.18,0,0,0,5.11-4.06,17.77,17.77,0,0,0,3.08-5.81A21.74,21.74,0,0,0,952.5,197.67Z"/><path class="cls-6" d="M1035.1,232.81v-9.66h-.28a19.51,19.51,0,0,1-3.3,4.48,20.42,20.42,0,0,1-4.75,3.64,28.85,28.85,0,0,1-6,2.52,24,24,0,0,1-6.93,1,25.4,25.4,0,0,1-11.84-2.52,22.91,22.91,0,0,1-7.83-6.51,25.48,25.48,0,0,1-4.34-9.1,41,41,0,0,1-1.33-10.43V163.09h23.1v37.8a35.86,35.86,0,0,0,.42,5.6,13.6,13.6,0,0,0,1.61,4.76,8.82,8.82,0,0,0,3.15,3.29,9.81,9.81,0,0,0,5.18,1.19,10.5,10.5,0,0,0,9.17-4.48,17.76,17.76,0,0,0,3.15-10.5V163.09h23v69.72Z"/><path class="cls-6" d="M1116.16,183.67a25.89,25.89,0,0,0-6.58-4.48,18.21,18.21,0,0,0-8-1.82,14,14,0,0,0-5.95,1.26,4.42,4.42,0,0,0-2.73,4.34,4.32,4.32,0,0,0,3,4.2,64.57,64.57,0,0,0,9.73,2.8,53.44,53.44,0,0,1,7.91,2.38,27.87,27.87,0,0,1,7.2,4.06,19.53,19.53,0,0,1,5.19,6.16,18.15,18.15,0,0,1,2,8.68,20.9,20.9,0,0,1-9.59,18.48,29.87,29.87,0,0,1-9.6,4.06,45.94,45.94,0,0,1-10.63,1.26,52.54,52.54,0,0,1-16.73-2.73,35.08,35.08,0,0,1-13.65-8l12.88-13.58a25.59,25.59,0,0,0,7.56,5.6,20.9,20.9,0,0,0,9.52,2.24,12.49,12.49,0,0,0,5.53-1.33,4.78,4.78,0,0,0,2.73-4.69q0-3.21-3.36-4.76a60.9,60.9,0,0,0-10.5-3.22,52.88,52.88,0,0,1-7.28-2.24,22.86,22.86,0,0,1-6.51-3.78,18.51,18.51,0,0,1-4.69-5.88,17.9,17.9,0,0,1-1.83-8.4,20.31,20.31,0,0,1,2.67-10.71,22.53,22.53,0,0,1,6.86-7.21,30.7,30.7,0,0,1,9.31-4.13,40.43,40.43,0,0,1,10.15-1.33,49.17,49.17,0,0,1,15.33,2.45,33.36,33.36,0,0,1,12.67,7.35Z"/><path class="cls-6" d="M77.3,232.81V133.69h24.08V212h38.36v20.86Z"/><path class="cls-6" d="M221.08,197.67A37.72,37.72,0,0,1,218,213.14a34.87,34.87,0,0,1-8.4,11.76,38.5,38.5,0,0,1-12.32,7.49,43.31,43.31,0,0,1-29.89,0,37.34,37.34,0,0,1-12.32-7.49,35.11,35.11,0,0,1-8.33-11.76,37.55,37.55,0,0,1-3.08-15.47,37.12,37.12,0,0,1,3.08-15.4,34.63,34.63,0,0,1,8.33-11.62,36.21,36.21,0,0,1,12.32-7.28,45.58,45.58,0,0,1,29.89,0,37.29,37.29,0,0,1,12.32,7.28,34.4,34.4,0,0,1,8.4,11.62A37.28,37.28,0,0,1,221.08,197.67Zm-22.12,0a20.08,20.08,0,0,0-1.12-6.58,17.6,17.6,0,0,0-3.22-5.67,16.5,16.5,0,0,0-5.18-4,17.32,17.32,0,0,0-14.28,0,15.56,15.56,0,0,0-5.11,4,17.1,17.1,0,0,0-3.08,5.67,21.14,21.14,0,0,0,0,13.16,17.9,17.9,0,0,0,3.15,5.81,15.32,15.32,0,0,0,5.18,4.13,17.32,17.32,0,0,0,14.28,0,15.41,15.41,0,0,0,5.18-4.13,17.9,17.9,0,0,0,3.15-5.81A21.07,21.07,0,0,0,199,197.67Z"/><path class="cls-6" d="M283.79,185.63a13.92,13.92,0,0,0-5.32-4.06,16.39,16.39,0,0,0-6.86-1.54A14.53,14.53,0,0,0,265,181.5a16,16,0,0,0-5,3.92,18.75,18.75,0,0,0-3.29,5.67,19.75,19.75,0,0,0-1.19,6.86,20.86,20.86,0,0,0,1.12,6.86,16.86,16.86,0,0,0,3.29,5.67,15.63,15.63,0,0,0,5.18,3.85,15.83,15.83,0,0,0,6.79,1.4,18.91,18.91,0,0,0,6.93-1.33,13.2,13.2,0,0,0,5.53-3.85l12.74,15.54a29.77,29.77,0,0,1-11.2,6.58,44,44,0,0,1-14.56,2.38,46.18,46.18,0,0,1-15.42-2.52,35.83,35.83,0,0,1-12.44-7.35,34.48,34.48,0,0,1-8.31-11.69,41,41,0,0,1,0-30.94,34.58,34.58,0,0,1,8.31-11.69,36.78,36.78,0,0,1,12.44-7.42,44.78,44.78,0,0,1,15.28-2.59,40.86,40.86,0,0,1,7.49.7,50.5,50.5,0,0,1,7.14,1.89,33.16,33.16,0,0,1,6.3,2.94,26.4,26.4,0,0,1,5,3.85Z"/><path class="cls-6" d="M352,232.81v-9.66h-.28a19.76,19.76,0,0,1-3.29,4.48,20.48,20.48,0,0,1-4.76,3.64,28.85,28.85,0,0,1-6,2.52,23.89,23.89,0,0,1-6.93,1,25.33,25.33,0,0,1-11.83-2.52,22.94,22.94,0,0,1-7.84-6.51,25.65,25.65,0,0,1-4.34-9.1,41,41,0,0,1-1.33-10.43V163.09h23.1v37.8a35.86,35.86,0,0,0,.42,5.6,14,14,0,0,0,1.61,4.76,8.82,8.82,0,0,0,3.15,3.29,9.83,9.83,0,0,0,5.18,1.19,10.5,10.5,0,0,0,9.17-4.48,17.76,17.76,0,0,0,3.15-10.5V163.09h23v69.72Z"/><path class="cls-6" d="M433,183.67a25.89,25.89,0,0,0-6.58-4.48,18.21,18.21,0,0,0-8-1.82,14,14,0,0,0-6,1.26,4.42,4.42,0,0,0-2.73,4.34,4.32,4.32,0,0,0,3,4.2,64.93,64.93,0,0,0,9.73,2.8,53.44,53.44,0,0,1,7.91,2.38,28.1,28.1,0,0,1,7.21,4.06,19.5,19.5,0,0,1,5.18,6.16,18,18,0,0,1,2,8.68,20.9,20.9,0,0,1-9.59,18.48,29.82,29.82,0,0,1-9.59,4.06A46,46,0,0,1,415,235.05a52.59,52.59,0,0,1-16.73-2.73,35.08,35.08,0,0,1-13.65-8l12.88-13.58a25.59,25.59,0,0,0,7.56,5.6,20.93,20.93,0,0,0,9.52,2.24,12.45,12.45,0,0,0,5.53-1.33,4.77,4.77,0,0,0,2.73-4.69q0-3.21-3.36-4.76a60.9,60.9,0,0,0-10.5-3.22,53.31,53.31,0,0,1-7.28-2.24,22.86,22.86,0,0,1-6.51-3.78,18.65,18.65,0,0,1-4.69-5.88,18,18,0,0,1-1.82-8.4,20.4,20.4,0,0,1,2.66-10.71,22.53,22.53,0,0,1,6.86-7.21,30.7,30.7,0,0,1,9.31-4.13,40.49,40.49,0,0,1,10.15-1.33A49.07,49.07,0,0,1,433,163.3a33.28,33.28,0,0,1,12.67,7.35Z"/></svg>