<svg id="Layer_1" data-name="Layer 1" xmlns="http://www.w3.org/2000/svg" viewBox="0 0 1057.45 218.33"><defs><style>.cls-1{fill:#393;}.cls-2{fill:#f93;}.cls-3{fill:#fff;}.cls-4{fill:none;stroke:#4353ff;stroke-miterlimit:10;stroke-width:8px;}.cls-5{fill:#78adff;}</style></defs><title>Artboard 13</title><circle class="cls-1" cx="449.96" cy="79.25" r="71.72"/><ellipse class="cls-2" cx="450.36" cy="80.56" rx="64.19" ry="49.65" transform="translate(-5.51 119.31) rotate(-15)"/><path class="cls-3" d="M457.7,108a31.32,31.32,0,0,0,22.16-38.39c-6.08-22.7-45.33-48.11-45.33-48.11s-21.3,41.63-15.21,64.34A31.32,31.32,0,0,0,457.7,108Z"/><polyline class="cls-4" points="469.66 79.36 448.72 74.62 442.77 52.41"/><path class="cls-5" d="M451.88,7.76a51.78,51.78,0,1,1-39.25,10.52A71.62,71.62,0,0,0,380.82,98C394.73,149.9,484.5,208,484.5,208s48.7-95.2,34.78-147.13A71.61,71.61,0,0,0,451.88,7.76Z"/><path class="cls-3" d="M2.75,160.53V61.41H26.83v78.26H65.19v20.86Z"/><path class="cls-3" d="M146.53,125.39a37.75,37.75,0,0,1-3.08,15.47,34.6,34.6,0,0,1-8.4,11.76,38.39,38.39,0,0,1-12.32,7.49,43.31,43.31,0,0,1-29.89,0,37.45,37.45,0,0,1-12.32-7.49,35.11,35.11,0,0,1-8.33-11.76,37.75,37.75,0,0,1-3.08-15.47A37.22,37.22,0,0,1,72.19,110a34.44,34.44,0,0,1,8.33-11.62,36.15,36.15,0,0,1,12.32-7.28,45.58,45.58,0,0,1,29.89,0,37,37,0,0,1,12.32,7.28,33.94,33.94,0,0,1,8.4,11.62A37.22,37.22,0,0,1,146.53,125.39Zm-22.12,0a19.78,19.78,0,0,0-1.12-6.58,17.39,17.39,0,0,0-3.22-5.67,16.5,16.5,0,0,0-5.18-4,16.08,16.08,0,0,0-19.39,4,17.09,17.09,0,0,0-3.08,5.67,21.14,21.14,0,0,0,0,13.16,18.11,18.11,0,0,0,3.15,5.81,15.54,15.54,0,0,0,5.18,4.13,17.32,17.32,0,0,0,14.28,0,15.54,15.54,0,0,0,5.18-4.13,18.11,18.11,0,0,0,3.15-5.81A21.11,21.11,0,0,0,124.41,125.39Z"/><path class="cls-3" d="M209.25,113.35a13.9,13.9,0,0,0-5.32-4.06,16.27,16.27,0,0,0-6.86-1.54,14.5,14.5,0,0,0-6.58,1.47,16,16,0,0,0-5,3.92,18.31,18.31,0,0,0-3.29,5.67,19.44,19.44,0,0,0-1.19,6.86,20.65,20.65,0,0,0,1.12,6.86,16.63,16.63,0,0,0,3.29,5.67,15.7,15.7,0,0,0,5.18,3.85,15.94,15.94,0,0,0,6.79,1.4,19,19,0,0,0,6.93-1.33,13.35,13.35,0,0,0,5.53-3.85l12.74,15.54a30.06,30.06,0,0,1-11.2,6.58,44.32,44.32,0,0,1-14.56,2.38,46.1,46.1,0,0,1-15.42-2.52,35.74,35.74,0,0,1-12.44-7.35,34.3,34.3,0,0,1-8.31-11.69,38.1,38.1,0,0,1-3-15.54,37.69,37.69,0,0,1,3-15.4,34.21,34.21,0,0,1,8.31-11.69,36.68,36.68,0,0,1,12.44-7.42,44.46,44.46,0,0,1,15.28-2.59,40.08,40.08,0,0,1,7.49.7,48.59,48.59,0,0,1,7.14,1.89,32.53,32.53,0,0,1,6.3,2.94,26.31,26.31,0,0,1,5,3.85Z"/><path class="cls-3" d="M277.43,160.53v-9.66h-.28a20,20,0,0,1-3.29,4.48A21,21,0,0,1,269.1,159a30,30,0,0,1-6,2.52,24.33,24.33,0,0,1-6.93,1A25.33,25.33,0,0,1,244.32,160a22.85,22.85,0,0,1-7.84-6.51,25.56,25.56,0,0,1-4.34-9.1,41.15,41.15,0,0,1-1.33-10.43V90.81h23.1v37.8a36,36,0,0,0,.42,5.6,13.88,13.88,0,0,0,1.61,4.76,8.82,8.82,0,0,0,3.15,3.29,9.91,9.91,0,0,0,5.18,1.19,10.53,10.53,0,0,0,9.17-4.48,17.8,17.8,0,0,0,3.15-10.5V90.81h23v69.72Z"/><path class="cls-3" d="M358.49,111.39a25.38,25.38,0,0,0-6.58-4.48,18.07,18.07,0,0,0-8-1.82,14,14,0,0,0-5.95,1.26,4.42,4.42,0,0,0-2.73,4.34,4.32,4.32,0,0,0,3,4.2,65.79,65.79,0,0,0,9.73,2.8,52.27,52.27,0,0,1,7.91,2.38,28.1,28.1,0,0,1,7.21,4.06,19.52,19.52,0,0,1,5.18,6.16,18.15,18.15,0,0,1,2,8.68,20.9,20.9,0,0,1-9.59,18.48,30.14,30.14,0,0,1-9.59,4.06,46.09,46.09,0,0,1-10.64,1.26A52.54,52.54,0,0,1,323.7,160a35.2,35.2,0,0,1-13.65-8l12.88-13.58a25.76,25.76,0,0,0,7.56,5.6,21,21,0,0,0,9.52,2.24,12.62,12.62,0,0,0,5.53-1.33,4.78,4.78,0,0,0,2.73-4.69q0-3.22-3.36-4.76a60,60,0,0,0-10.5-3.22,54.3,54.3,0,0,1-7.28-2.24,23.34,23.34,0,0,1-6.51-3.78,18.74,18.74,0,0,1-4.69-5.88,17.93,17.93,0,0,1-1.82-8.4,20.31,20.31,0,0,1,2.66-10.71A22.43,22.43,0,0,1,323.63,94a30.22,30.22,0,0,1,9.31-4.13,40,40,0,0,1,10.15-1.33A49.17,49.17,0,0,1,358.42,91a33.1,33.1,0,0,1,12.67,7.35Z"/><path class="cls-3" d="M585.63,81.85v78.68H561.69V81.85h-28V61.41h79.94V81.85Z"/><path class="cls-3" d="M679,126.51v2.8a22.62,22.62,0,0,1-.14,2.66H628.33a12.23,12.23,0,0,0,1.75,5.32,15.27,15.27,0,0,0,3.78,4.13A18.55,18.55,0,0,0,645,145.13a19.35,19.35,0,0,0,9.24-2,18.36,18.36,0,0,0,6.16-5.25l16,10.08a32.32,32.32,0,0,1-13,11,42.94,42.94,0,0,1-18.69,3.85,44.73,44.73,0,0,1-14.84-2.45,36.22,36.22,0,0,1-12.25-7.14,33.17,33.17,0,0,1-8.26-11.55,38.81,38.81,0,0,1-3-15.68,39.25,39.25,0,0,1,2.94-15.47,35,35,0,0,1,8-11.76,35.56,35.56,0,0,1,11.9-7.49A40.54,40.54,0,0,1,644,88.57a37.46,37.46,0,0,1,14.14,2.59,30.81,30.81,0,0,1,11.06,7.49,34.56,34.56,0,0,1,7.21,11.9A45.71,45.71,0,0,1,679,126.51Zm-21.14-8.82a13.74,13.74,0,0,0-3.43-9.38c-2.29-2.62-5.71-3.92-10.29-3.92a17.43,17.43,0,0,0-6.16,1,16,16,0,0,0-4.9,2.87,14.07,14.07,0,0,0-3.36,4.27,12.56,12.56,0,0,0-1.4,5.11Z"/><path class="cls-3" d="M782.33,160.53V122.45a37.25,37.25,0,0,0-.42-5.67,13.42,13.42,0,0,0-1.54-4.69,8.83,8.83,0,0,0-3-3.15,9.17,9.17,0,0,0-5-1.19,10,10,0,0,0-5.11,1.26,11.34,11.34,0,0,0-3.64,3.36,14.77,14.77,0,0,0-2.17,4.83,22.58,22.58,0,0,0-.7,5.67v37.66h-23V120.77c0-4-.79-7.19-2.38-9.52s-4.11-3.5-7.56-3.5a9.7,9.7,0,0,0-8.47,4.34,18.18,18.18,0,0,0-3,10.64v37.8h-23.1V90.81h22.26v9.66h.28A24.11,24.11,0,0,1,719,96.13a20,20,0,0,1,4.55-3.71,25.07,25.07,0,0,1,13.16-3.57,24.85,24.85,0,0,1,12.81,3.08,21.07,21.07,0,0,1,8.19,8.82,26.55,26.55,0,0,1,9-8.68A25.72,25.72,0,0,1,780,88.85a25.05,25.05,0,0,1,12,2.59,22.13,22.13,0,0,1,7.77,6.72A27.9,27.9,0,0,1,804,107.4a39.44,39.44,0,0,1,1.33,10v43.12Z"/><path class="cls-3" d="M900.21,125.39a44.09,44.09,0,0,1-2.24,14,35.91,35.91,0,0,1-6.51,11.83A32.34,32.34,0,0,1,881,159.41a30.93,30.93,0,0,1-14,3.08,29.4,29.4,0,0,1-12.18-2.59,21.83,21.83,0,0,1-9-7.07h-.28v41.3h-23V90.81h21.84v8.54h.42A28.32,28.32,0,0,1,853.8,92a27.11,27.11,0,0,1,13.37-3.15,31.46,31.46,0,0,1,13.72,2.94,31,31,0,0,1,10.43,8,36.19,36.19,0,0,1,6.58,11.69A42.1,42.1,0,0,1,900.21,125.39Zm-22.26,0a21.07,21.07,0,0,0-1.05-6.58,17.09,17.09,0,0,0-3.08-5.67,15.43,15.43,0,0,0-12.25-5.53,15.4,15.4,0,0,0-7,1.54,16.82,16.82,0,0,0-5.25,4.06A18.42,18.42,0,0,0,846,119a18.79,18.79,0,0,0,0,13.16,18.42,18.42,0,0,0,3.36,5.74,16.82,16.82,0,0,0,5.25,4.06,15.53,15.53,0,0,0,7,1.54,15.83,15.83,0,0,0,7.14-1.54,15.21,15.21,0,0,0,5.11-4.06A17.87,17.87,0,0,0,876.9,132,21.74,21.74,0,0,0,878,125.39Z"/><path class="cls-3" d="M960.55,160.53v-9.66h-.28a20,20,0,0,1-3.29,4.48,20.76,20.76,0,0,1-4.76,3.64,30,30,0,0,1-6,2.52,24.23,24.23,0,0,1-6.93,1A25.33,25.33,0,0,1,927.44,160a22.94,22.94,0,0,1-7.84-6.51,25.73,25.73,0,0,1-4.34-9.1,41.15,41.15,0,0,1-1.33-10.43V90.81H937v37.8a36,36,0,0,0,.42,5.6,14.09,14.09,0,0,0,1.61,4.76,8.82,8.82,0,0,0,3.15,3.29,9.93,9.93,0,0,0,5.18,1.19,10.53,10.53,0,0,0,9.17-4.48,17.8,17.8,0,0,0,3.15-10.5V90.81h23v69.72Z"/><path class="cls-3" d="M1041.61,111.39a25.38,25.38,0,0,0-6.58-4.48,18.07,18.07,0,0,0-8-1.82,14,14,0,0,0-5.95,1.26,4.42,4.42,0,0,0-2.73,4.34,4.32,4.32,0,0,0,3,4.2,66.17,66.17,0,0,0,9.73,2.8,52.27,52.27,0,0,1,7.91,2.38,28.1,28.1,0,0,1,7.21,4.06,19.39,19.39,0,0,1,5.18,6.16,18,18,0,0,1,2,8.68,20.9,20.9,0,0,1-9.59,18.48,30,30,0,0,1-9.59,4.06,46,46,0,0,1-10.64,1.26,52.59,52.59,0,0,1-16.73-2.73,35.2,35.2,0,0,1-13.65-8l12.88-13.58a25.76,25.76,0,0,0,7.56,5.6,21.06,21.06,0,0,0,9.52,2.24,12.59,12.59,0,0,0,5.53-1.33,4.78,4.78,0,0,0,2.73-4.69q0-3.22-3.36-4.76a60,60,0,0,0-10.5-3.22,54.74,54.74,0,0,1-7.28-2.24,23.34,23.34,0,0,1-6.51-3.78,18.88,18.88,0,0,1-4.69-5.88,18.05,18.05,0,0,1-1.82-8.4,20.4,20.4,0,0,1,2.66-10.71,22.43,22.43,0,0,1,6.86-7.21,30.22,30.22,0,0,1,9.31-4.13,40,40,0,0,1,10.15-1.33A49.07,49.07,0,0,1,1041.54,91a33,33,0,0,1,12.67,7.35Z"/></svg>