<?xml version="1.0" encoding="utf-8"?>
<!-- Generator: Adobe Illustrator 24.0.0, SVG Export Plug-In . SVG Version: 6.00 Build 0)  -->
<svg version="1.1" id="Layer_1" xmlns="http://www.w3.org/2000/svg" xmlns:xlink="http://www.w3.org/1999/xlink" x="0px" y="0px"
	 viewBox="0 0 1057.4 218.3" style="enable-background:new 0 0 1057.4 218.3;" xml:space="preserve">
<style type="text/css">
	.st0{fill:#339933;}
	.st1{fill:#FF9933;}
	.st2{fill:#FFFFFF;}
	.st3{fill:none;stroke:#4353FF;stroke-width:8;stroke-miterlimit:10;}
	.st4{fill:#78ADFF;}
</style>
<title>Artboard 14</title>
<g id="Layer_2_1_">
	<circle class="st0" cx="449.9" cy="79.4" r="71.7"/>
	
		<ellipse transform="matrix(0.9659 -0.2588 0.2588 0.9659 -7.9696 120.2815)" class="st1" cx="452.8" cy="90.4" rx="64.2" ry="49.6"/>
	<path class="st2" d="M457.6,108.2c16.7-4.5,26.6-21.6,22.2-38.4c0,0,0,0,0,0c-6.1-22.7-45.3-48.1-45.3-48.1S413.1,63.3,419.2,86
		C423.7,102.7,440.8,112.6,457.6,108.2C457.6,108.2,457.6,108.2,457.6,108.2z"/>
	<polyline class="st3" points="469.5,79.6 448.6,74.8 442.6,52.6 	"/>
	<path class="st4" d="M451.8,8c28.3,4,48,30.2,44,58.6s-30.2,48-58.6,44s-48-30.2-44-58.6c1.9-13.2,8.8-25.2,19.3-33.5
		c-27.1,16.6-40.1,49-31.8,79.7c13.9,51.9,103.7,110,103.7,110s48.7-95.2,34.8-147.1C510.9,30.4,483.5,8.8,451.8,8z"/>
</g>
<path class="st2" d="M2.8,160.5V61.4h24.1v78.3h38.4v20.9H2.8z"/>
<path class="st2" d="M146.5,125.4c0.1,5.3-1,10.6-3.1,15.5c-1.9,4.5-4.8,8.5-8.4,11.8c-3.6,3.3-7.8,5.8-12.3,7.5
	c-9.6,3.5-20.2,3.5-29.9,0c-4.6-1.7-8.7-4.2-12.3-7.5c-3.6-3.3-6.4-7.3-8.3-11.8c-2.1-4.9-3.2-10.2-3.1-15.5
	c-0.1-5.3,1-10.5,3.1-15.4c1.9-4.4,4.8-8.4,8.3-11.6c3.6-3.2,7.8-5.7,12.3-7.3c9.7-3.4,20.2-3.4,29.9,0c4.5,1.6,8.7,4.1,12.3,7.3
	c3.6,3.2,6.5,7.2,8.4,11.6C145.6,114.9,146.6,120.1,146.5,125.4z M124.4,125.4c0-2.2-0.4-4.5-1.1-6.6c-0.7-2.1-1.8-4-3.2-5.7
	c-1.4-1.7-3.2-3-5.2-4c-6.6-3.3-14.6-1.6-19.4,4c-1.4,1.7-2.4,3.6-3.1,5.7c-1.4,4.3-1.4,8.9,0,13.2c0.7,2.1,1.8,4.1,3.2,5.8
	c1.4,1.7,3.2,3.1,5.2,4.1c4.5,2.1,9.7,2.1,14.3,0c2-1,3.8-2.4,5.2-4.1c1.4-1.7,2.5-3.7,3.2-5.8C124.1,129.8,124.4,127.6,124.4,125.4
	z"/>
<path class="st2" d="M209.2,113.3c-1.4-1.8-3.2-3.2-5.3-4.1c-2.1-1-4.5-1.5-6.9-1.5c-2.3,0-4.5,0.5-6.6,1.5c-1.9,1-3.6,2.3-5,3.9
	c-1.4,1.7-2.5,3.6-3.3,5.7c-0.8,2.2-1.2,4.5-1.2,6.9c0,2.3,0.4,4.7,1.1,6.9c0.7,2.1,1.8,4,3.3,5.7c1.4,1.6,3.2,2.9,5.2,3.9
	c2.1,1,4.5,1.4,6.8,1.4c2.4,0,4.7-0.5,6.9-1.3c2.1-0.8,4-2.1,5.5-3.9l12.7,15.5c-3.2,3-7,5.2-11.2,6.6c-4.7,1.6-9.6,2.4-14.6,2.4
	c-5.2,0-10.5-0.8-15.4-2.5c-4.6-1.6-8.8-4.1-12.4-7.4c-3.6-3.3-6.4-7.3-8.3-11.7c-2.1-4.9-3.1-10.2-3-15.5c-0.1-5.3,0.9-10.5,3-15.4
	c1.9-4.4,4.7-8.4,8.3-11.7c3.6-3.3,7.8-5.8,12.4-7.4c4.9-1.8,10.1-2.6,15.3-2.6c2.5,0,5,0.2,7.5,0.7c2.4,0.4,4.8,1.1,7.1,1.9
	c2.2,0.7,4.3,1.7,6.3,2.9c1.8,1.1,3.5,2.4,5,3.8L209.2,113.3z"/>
<path class="st2" d="M277.4,160.5v-9.7h-0.3c-0.9,1.6-2,3.1-3.3,4.5c-1.4,1.4-3,2.7-4.8,3.7c-1.9,1.1-3.9,1.9-6,2.5
	c-2.2,0.7-4.6,1-6.9,1c-4.1,0.1-8.2-0.7-11.9-2.5c-3.1-1.6-5.8-3.8-7.8-6.5c-2-2.7-3.5-5.8-4.3-9.1c-0.9-3.4-1.3-6.9-1.3-10.4V90.8
	h23.1v37.8c0,1.9,0.1,3.7,0.4,5.6c0.2,1.7,0.8,3.3,1.6,4.8c0.7,1.4,1.8,2.5,3.2,3.3c1.6,0.9,3.4,1.3,5.2,1.2
	c3.6,0.2,7.1-1.5,9.2-4.5c2.1-3.1,3.2-6.8,3.1-10.5V90.8h23v69.7H277.4z"/>
<path class="st2" d="M358.5,111.4c-1.9-1.8-4.2-3.3-6.6-4.5c-2.5-1.2-5.2-1.8-8-1.8c-2.1,0-4.1,0.4-6,1.3c-1.7,0.7-2.8,2.5-2.7,4.3
	c0,1.9,1.2,3.6,3,4.2c3.2,1.2,6.4,2.1,9.7,2.8c2.7,0.6,5.3,1.4,7.9,2.4c2.6,1,5,2.4,7.2,4.1c2.1,1.7,3.9,3.8,5.2,6.2
	c1.4,2.7,2.1,5.7,2,8.7c0.3,7.4-3.3,14.5-9.6,18.5c-2.9,1.9-6.2,3.3-9.6,4.1c-3.5,0.8-7.1,1.3-10.6,1.3c-5.7,0-11.3-0.9-16.7-2.8
	c-5.1-1.6-9.8-4.3-13.6-8l12.9-13.6c2.2,2.3,4.7,4.2,7.6,5.6c3,1.5,6.2,2.3,9.5,2.2c1.9,0,3.8-0.5,5.5-1.3c1.8-0.8,2.9-2.7,2.7-4.7
	c0-2.1-1.1-3.7-3.4-4.8c-3.4-1.4-6.9-2.5-10.5-3.2c-2.5-0.6-4.9-1.3-7.3-2.2c-2.4-0.9-4.6-2.2-6.5-3.8c-1.9-1.6-3.5-3.6-4.7-5.9
	c-1.3-2.6-1.9-5.5-1.8-8.4c-0.1-3.7,0.8-7.5,2.7-10.7c1.7-2.9,4.1-5.4,6.9-7.3c2.8-1.9,6-3.3,9.3-4.1c3.3-0.9,6.7-1.3,10.1-1.3
	c5.2,0,10.4,0.8,15.3,2.5c4.7,1.5,9,4,12.7,7.3L358.5,111.4z"/>
<path class="st2" d="M585.6,81.8v78.7h-23.9V81.8h-28V61.4h79.9v20.4H585.6z"/>
<path class="st2" d="M679,126.5v2.8c0,0.9,0,1.8-0.1,2.7h-50.5c0.2,1.9,0.8,3.7,1.8,5.3c1,1.6,2.3,3,3.8,4.1
	c3.2,2.4,7.1,3.7,11.1,3.7c3.2,0.1,6.4-0.6,9.2-2c2.4-1.3,4.5-3.1,6.2-5.2l16,10.1c-3.3,4.8-7.8,8.6-13,11c-5.9,2.7-12.3,4-18.7,3.9
	c-5,0-10.1-0.8-14.8-2.4c-4.5-1.5-8.7-4-12.2-7.1c-3.6-3.2-6.4-7.1-8.3-11.6c-2.1-5-3.1-10.3-3-15.7c-0.1-5.3,0.9-10.6,2.9-15.5
	c1.8-4.4,4.6-8.4,8-11.8c3.4-3.3,7.5-5.8,11.9-7.5c4.7-1.8,9.7-2.7,14.8-2.7c4.8-0.1,9.6,0.8,14.1,2.6c4.2,1.7,8,4.2,11.1,7.5
	c3.2,3.4,5.6,7.5,7.2,11.9C678.2,115.7,679.1,121.1,679,126.5z M657.9,117.7c0.1-3.4-1.2-6.8-3.4-9.4c-2.3-2.6-5.7-3.9-10.3-3.9
	c-2.1,0-4.2,0.3-6.2,1c-1.8,0.7-3.5,1.6-4.9,2.9c-1.4,1.2-2.5,2.6-3.4,4.3c-0.8,1.6-1.3,3.3-1.4,5.1L657.9,117.7z"/>
<path class="st2" d="M782.3,160.5v-38.1c0-1.9-0.1-3.8-0.4-5.7c-0.2-1.6-0.7-3.2-1.5-4.7c-0.7-1.3-1.8-2.4-3-3.2
	c-1.5-0.9-3.3-1.3-5-1.2c-1.8,0-3.5,0.4-5.1,1.3c-1.4,0.8-2.7,2-3.6,3.4c-1,1.5-1.7,3.1-2.2,4.8c-0.5,1.9-0.7,3.8-0.7,5.7v37.7h-23
	v-39.8c0-4-0.8-7.2-2.4-9.5s-4.1-3.5-7.6-3.5c-3.4-0.1-6.6,1.5-8.5,4.3c-2.1,3.1-3.1,6.9-3,10.6v37.8h-23.1V90.8h22.3v9.7h0.3
	c0.9-1.6,2-3,3.2-4.3c1.3-1.5,2.9-2.7,4.5-3.7c4-2.4,8.5-3.6,13.2-3.6c4.5-0.1,8.9,0.9,12.8,3.1c3.5,2.1,6.4,5.1,8.2,8.8
	c2.3-3.6,5.4-6.5,9-8.7c4.1-2.3,8.7-3.4,13.3-3.2c4.2-0.1,8.3,0.7,12,2.6c3.1,1.6,5.7,3.9,7.8,6.7c2,2.8,3.4,5.9,4.2,9.2
	c0.9,3.3,1.3,6.6,1.3,10v43.1L782.3,160.5z"/>
<path class="st2" d="M900.2,125.4c0,4.8-0.7,9.5-2.2,14c-1.4,4.3-3.6,8.3-6.5,11.8c-2.9,3.4-6.4,6.2-10.5,8.2
	c-4.4,2.1-9.2,3.2-14,3.1c-4.2,0-8.4-0.9-12.2-2.6c-3.6-1.5-6.7-4-9-7.1h-0.3v41.3h-23V90.8h21.8v8.5h0.4c2.5-3,5.5-5.5,9-7.3
	c4.1-2.2,8.7-3.3,13.4-3.2c4.7-0.1,9.4,0.9,13.7,2.9c4,1.9,7.6,4.6,10.4,8c2.9,3.5,5.1,7.4,6.6,11.7
	C899.4,116,900.2,120.7,900.2,125.4z M878,125.4c0-2.2-0.4-4.5-1-6.6c-0.7-2.1-1.7-4-3.1-5.7c-3-3.6-7.5-5.7-12.2-5.5
	c-2.4,0-4.8,0.5-7,1.5c-2,1-3.8,2.4-5.2,4.1c-1.5,1.7-2.6,3.7-3.3,5.8c-1.6,4.2-1.6,8.9,0,13.2c0.8,2.1,1.9,4,3.4,5.7
	c1.5,1.7,3.2,3.1,5.2,4.1c2.2,1.1,4.6,1.6,7,1.5c2.5,0.1,4.9-0.5,7.1-1.5c2-1,3.7-2.4,5.1-4.1c1.4-1.8,2.4-3.8,3-5.9
	C877.6,129.9,878,127.6,878,125.4L878,125.4z"/>
<path class="st2" d="M960.5,160.5v-9.7h-0.3c-0.9,1.6-2,3.1-3.3,4.5c-1.4,1.4-3,2.7-4.8,3.6c-1.9,1.1-3.9,1.9-6,2.5
	c-2.2,0.7-4.6,1-6.9,1c-4.1,0.1-8.2-0.7-11.8-2.5c-3.1-1.6-5.7-3.8-7.8-6.5c-2-2.7-3.5-5.8-4.3-9.1c-0.9-3.4-1.3-6.9-1.3-10.4V90.8
	H937v37.8c0,1.9,0.1,3.7,0.4,5.6c0.2,1.7,0.8,3.3,1.6,4.8c0.7,1.4,1.8,2.5,3.2,3.3c1.6,0.9,3.4,1.3,5.2,1.2c3.6,0.2,7.1-1.5,9.2-4.5
	c2.1-3.1,3.2-6.8,3.2-10.5V90.8h23v69.7H960.5z"/>
<path class="st2" d="M1041.6,111.4c-1.9-1.8-4.2-3.3-6.6-4.5c-2.5-1.2-5.2-1.8-8-1.8c-2.1,0-4.1,0.4-6,1.3c-1.7,0.7-2.8,2.5-2.7,4.3
	c0,1.9,1.2,3.6,3,4.2c3.2,1.2,6.4,2.1,9.7,2.8c2.7,0.6,5.3,1.4,7.9,2.4c2.6,1,5,2.4,7.2,4.1c2.1,1.7,3.9,3.8,5.2,6.2
	c1.4,2.7,2.1,5.7,2,8.7c0.3,7.4-3.3,14.5-9.6,18.5c-2.9,1.9-6.2,3.3-9.6,4.1c-3.5,0.8-7.1,1.3-10.6,1.3c-5.7,0-11.3-0.9-16.7-2.7
	c-5.1-1.6-9.8-4.3-13.7-8l12.9-13.6c2.2,2.3,4.7,4.2,7.6,5.6c3,1.5,6.2,2.3,9.5,2.2c1.9,0,3.8-0.5,5.5-1.3c1.8-0.8,2.9-2.7,2.7-4.7
	c0-2.1-1.1-3.7-3.4-4.8c-3.4-1.4-6.9-2.5-10.5-3.2c-2.5-0.6-4.9-1.3-7.3-2.2c-2.4-0.9-4.6-2.2-6.5-3.8c-1.9-1.6-3.5-3.6-4.7-5.9
	c-1.3-2.6-1.9-5.5-1.8-8.4c-0.1-3.7,0.8-7.5,2.7-10.7c1.7-2.9,4.1-5.4,6.9-7.2c2.8-1.9,6-3.3,9.3-4.1c3.3-0.9,6.7-1.3,10.2-1.3
	c5.2,0,10.4,0.8,15.3,2.4c4.7,1.5,9.1,4,12.7,7.3L1041.6,111.4z"/>
</svg>
