<svg xmlns="http://www.w3.org/2000/svg" viewBox="0 0 625 360"><defs><style>.cls-1{fill:#efefef;}.cls-2{fill:#393;}.cls-3{fill:#78adff;}.cls-11,.cls-4,.cls-5{fill:none;stroke-miterlimit:10;}.cls-4{stroke:#ccc;stroke-width:3px;}.cls-5{stroke:#fff;stroke-width:6px;}.cls-6{fill:#f93;}.cls-7{fill:#fff;}.cls-8{fill:#e0e0e0;}.cls-9{fill:#ccc;}.cls-10{fill:#c00;}.cls-11{stroke:#4353ff;stroke-width:5px;}</style></defs><g id="map"><polygon class="cls-1" points="603.85 336.72 34.1 336.72 198.05 132 432.88 132 603.85 336.72"/><polygon class="cls-2" points="465.8 197.15 381.05 197.15 363.19 142.39 425.71 142.39 465.8 197.15"/><polygon class="cls-2" points="264.19 344 190.97 344 206.55 298.62 270.42 298.62 264.19 344"/><polygon class="cls-3" points="320.35 245.51 277.71 245.51 281.52 217.78 319.56 217.78 320.35 245.51"/><polygon class="cls-3" points="421.98 249.45 327.93 249.45 330.32 291.26 439.44 291.26 421.98 249.45"/><line class="cls-4" x1="337.08" y1="133.63" x2="342.55" y2="166.56"/><line class="cls-4" x1="451.43" y1="226.89" x2="511.81" y2="330.88"/><line class="cls-4" x1="363.08" y1="155.22" x2="248.61" y2="155.22"/><line class="cls-4" x1="319.4" y1="191.75" x2="224.04" y2="191.75"/><line class="cls-4" x1="488.26" y1="226.89" x2="369.6" y2="226.89"/><line class="cls-4" x1="277.39" y1="232.6" x2="246.67" y2="232.6"/><line class="cls-4" x1="321.92" y1="271.92" x2="278.14" y2="271.92"/><line class="cls-4" x1="363.41" y1="297.68" x2="368.08" y2="326.35"/><line class="cls-5" x1="318.75" y1="132" x2="327.04" y2="339.11"/><line class="cls-5" x1="441.27" y1="141.01" x2="218.76" y2="141.01"/><line class="cls-5" x1="471.33" y1="199.75" x2="321.46" y2="199.75"/><line class="cls-5" x1="446.93" y1="167.19" x2="575.76" y2="339.11"/><line class="cls-5" x1="362.55" y1="199.75" x2="385.3" y2="296.75"/><line class="cls-5" x1="319.47" y1="214.73" x2="170.62" y2="214.73"/><line class="cls-5" x1="271.36" y1="140.1" x2="241.34" y2="249.45"/><line class="cls-5" x1="360.12" y1="141.01" x2="378.26" y2="199.75"/><line class="cls-5" x1="544.02" y1="296.75" x2="131.36" y2="296.75"/><line class="cls-5" x1="395.03" y1="141.01" x2="415.95" y2="179.93"/><line class="cls-5" x1="474" y1="179.93" x2="372.14" y2="179.93"/><polygon class="cls-6" points="276.39 344 254.02 344 289.19 132 298.22 132 276.39 344"/><polygon class="cls-6" points="483.84 344 461.47 344 372.94 132 381.97 132 483.84 344"/><polygon class="cls-6" points="525.93 241.68 538.22 256.3 213.41 256.3 218.85 241.68 525.93 241.68"/><polygon class="cls-6" points="460.19 163.51 465.97 170.37 245.36 170.37 247.91 163.51 460.19 163.51"/><polygon class="cls-7" points="239.78 344 12 344 191.48 132 283.44 132 239.78 344"/><path class="cls-8" d="M185.65,166.56c-1.24,1.74-4.58,3.17-7.45,3.17s-4.08-1.43-2.74-3.17,4.6-3.05,7.37-3.05S186.87,164.86,185.65,166.56Z"/><path class="cls-8" d="M176.09,179.93c-1.43,2-5.11,3.66-8.19,3.66s-4.31-1.66-2.76-3.66,5.13-3.53,8.1-3.53S177.5,178,176.09,179.93Z"/><path class="cls-8" d="M165,195.46c-1.68,2.35-5.77,4.29-9.11,4.29s-4.54-1.94-2.73-4.29,5.77-4.11,9-4.11S166.63,193.17,165,195.46Z"/><polygon class="cls-8" points="209.53 154.4 183.91 154.4 189.14 147.67 213.73 147.67 209.53 154.4"/><polygon class="cls-8" points="239.91 154.4 214.28 154.4 218.28 147.67 242.87 147.67 239.91 154.4"/><polygon class="cls-8" points="268.39 154.4 242.76 154.4 245.61 147.67 270.2 147.67 268.39 154.4"/><polygon class="cls-8" points="264.09 170.37 189.17 170.37 194.65 162.32 266.26 162.32 264.09 170.37"/><polygon class="cls-8" points="260.34 184.34 179.66 184.34 186 175.03 262.84 175.03 260.34 184.34"/><polygon class="cls-8" points="255.96 200.63 168.58 200.63 175.98 189.75 258.88 189.75 255.96 200.63"/><path class="cls-9" d="M434.52,132,614,344H12L191.48,132h243m1.85-4H189.63l-1.2,1.42L9,341.42,3.37,348H622.63l-5.58-6.58-179.48-212-1.2-1.42Z"/></g><g id="Layer_4" data-name="Layer 4"><path class="cls-10" d="M435.1,281.17c-12.89-18.7-15.29-20.62-15.29-27.49a17,17,0,0,1,34.09,0c0,6.87-2.4,8.79-15.29,27.49a2.14,2.14,0,0,1-3.51,0Z"/><path class="cls-10" d="M311.45,265.53c-12.89-18.7-15.29-20.62-15.29-27.49a17,17,0,0,1,34.09,0c0,6.87-2.4,8.79-15.29,27.49a2.14,2.14,0,0,1-3.51,0Z"/><path class="cls-7" d="M310,15.6a58.6,58.6,0,0,1,55.06,38.59c15,41.32-17.85,122.37-17.85,122.37s-77.3-40.94-92.34-82.26a58.6,58.6,0,0,1,20.25-67.22,42.37,42.37,0,1,0,31.23-11.36c1.22-.08,2.44-.12,3.65-.12m0-10c-1.42,0-2.86.05-4.28.14l.09,20A32.36,32.36,0,1,1,282,34.38L269.19,19A69.07,69.07,0,0,0,244.39,54a68.06,68.06,0,0,0,1.09,43.74c6.94,19,25.55,39.66,55.33,61.3a387.3,387.3,0,0,0,41.73,26.38l9.78,5.18,4.16-10.26a385.35,385.35,0,0,0,15-47c8.91-35.71,9.91-63.48,3-82.52A68.61,68.61,0,0,0,310,5.6Z"/><circle class="cls-2" cx="309.67" cy="73.68" r="58.66"/><ellipse class="cls-6" cx="310.08" cy="74.72" rx="52.51" ry="40.62" transform="translate(-6.86 110.56) rotate(-20)"/><path class="cls-7" d="M318,96.54a25.63,25.63,0,0,0,15.33-32.86c-6.58-18.07-40.38-36-40.38-36s-14.38,35.44-7.81,53.51A25.62,25.62,0,0,0,318,96.54Z"/><polyline class="cls-11" points="325.73 72.37 308.33 70 301.89 52.32"/><path class="cls-3" d="M306.13,15.29A42.35,42.35,0,1,1,274.9,26.65a58.6,58.6,0,0,0-20.24,67.22c15,41.32,92.33,82.26,92.33,82.26s32.9-81,17.86-122.37A58.59,58.59,0,0,0,306.13,15.29Z"/></g><g id="Layer_2" data-name="Layer 2"><circle class="cls-6" cx="80.41" cy="223.09" r="20.05"/><circle class="cls-3" cx="220.73" cy="223.09" r="20.05"/><path class="cls-3" d="M230.76,253.16h-20A20,20,0,0,0,196.58,259a45.8,45.8,0,0,1,23.53,34.27h20.67a10,10,0,0,0,10-10v-10A20.06,20.06,0,0,0,230.76,253.16Z"/><circle class="cls-2" cx="150.57" cy="218.08" r="35.08"/><path class="cls-2" d="M174.63,263.19H172a48.44,48.44,0,0,1-42.91,0h-2.6a36.09,36.09,0,0,0-36.09,36.08v9a15,15,0,0,0,15,15h90.21a15,15,0,0,0,15-15v-9A36.09,36.09,0,0,0,174.63,263.19Z"/><path class="cls-6" d="M104.56,259a20,20,0,0,0-14.13-5.83H70.38a20.06,20.06,0,0,0-20,20v10a10,10,0,0,0,10,10H81A46,46,0,0,1,104.56,259Z"/></g></svg>