<svg xmlns="http://www.w3.org/2000/svg" viewBox="0 0 408 408"><defs><style>.cls-1{fill:#efefef;}.cls-2{fill:#393;}.cls-3{fill:#78adff;}.cls-4,.cls-5,.cls-8,.cls-9{fill:none;stroke-miterlimit:10;}.cls-4{stroke:#ccc;stroke-width:3px;}.cls-5{stroke:#fff;stroke-width:6px;}.cls-6{fill:#f93;}.cls-7{fill:#fff;}.cls-8,.cls-9{stroke:#e0e0e0;}.cls-8{stroke-width:12px;}.cls-9{stroke-width:10px;}.cls-10{fill:#e0e0e0;}.cls-11{fill:#c00;}.cls-12{fill:#999;}</style></defs><title>Artboard 1</title><g id="map"><rect class="cls-1" x="67" y="74" width="286" height="209"/><rect class="cls-2" x="264" y="98" width="71" height="87"/><rect class="cls-2" x="147" y="265" width="36" height="21"/><rect class="cls-3" x="183" y="207" width="29" height="24"/><rect class="cls-3" x="217" y="234" width="63" height="27"/><line class="cls-4" x1="236" y1="78" x2="236" y2="143"/><line class="cls-4" x1="308.5" y1="215.5" x2="308.5" y2="280.5"/><line class="cls-4" x1="259.5" y1="123.5" x2="139.5" y2="123.5"/><line class="cls-4" x1="212.5" y1="178.5" x2="130.5" y2="178.5"/><line class="cls-4" x1="335.5" y1="215.5" x2="248.5" y2="215.5"/><line class="cls-4" x1="181.5" y1="220.5" x2="159.5" y2="220.5"/><line class="cls-4" x1="212.5" y1="249.5" x2="185.5" y2="249.5"/><line class="cls-4" x1="235.5" y1="264.5" x2="235.5" y2="278.5"/><line class="cls-5" x1="214" y1="74" x2="214" y2="284"/><line class="cls-5" x1="354" y1="95" x2="99" y2="95"/><line class="cls-5" x1="338" y1="188" x2="214" y2="188"/><line class="cls-5" x1="338" y1="144" x2="338" y2="284"/><line class="cls-5" x1="248" y1="188" x2="248" y2="264"/><line class="cls-5" x1="212" y1="204" x2="97" y2="204"/><line class="cls-5" x1="159" y1="93" x2="159" y2="234"/><line class="cls-5" x1="261" y1="95" x2="261" y2="188"/><line class="cls-5" x1="338" y1="264" x2="104" y2="264"/><line class="cls-5" x1="301" y1="95" x2="301" y2="163"/><line class="cls-5" x1="354" y1="163" x2="261" y2="163"/><rect class="cls-6" x="178" y="74" width="11" height="212"/><rect class="cls-6" x="280" y="74" width="11" height="212"/><rect class="cls-6" x="242.5" y="127.5" width="11" height="212" transform="translate(14.5 481.5) rotate(-90)"/><rect class="cls-6" x="242.5" y="37.5" width="11" height="212" transform="translate(104.5 391.5) rotate(-90)"/></g><g id="Layer_6" data-name="Layer 6"><rect class="cls-7" x="59" y="74" width="112" height="209"/><line class="cls-8" x1="72" y1="115" x2="98" y2="115"/><line class="cls-8" x1="103" y1="115" x2="129" y2="115"/><line class="cls-8" x1="134" y1="115" x2="160" y2="115"/><line class="cls-9" x1="88" y1="143" x2="160" y2="143"/><circle class="cls-10" cx="77" cy="143" r="5"/><line class="cls-9" x1="88" y1="163" x2="160" y2="163"/><circle class="cls-10" cx="77" cy="163" r="5"/><line class="cls-9" x1="88" y1="183" x2="160" y2="183"/><circle class="cls-10" cx="77" cy="183" r="5"/><path class="cls-11" d="M238,175.34c-9.3-13.49-11-14.87-11-19.83a12.29,12.29,0,0,1,24.58,0c0,5-1.72,6.34-11,19.83a1.53,1.53,0,0,1-2.52,0Z"/><path class="cls-11" d="M278.27,234.6c-9.31-13.48-11-14.87-11-19.82a12.29,12.29,0,1,1,24.58,0c0,4.95-1.73,6.34-11,19.82a1.53,1.53,0,0,1-2.52,0Z"/><path class="cls-11" d="M198.27,222.6c-9.31-13.48-11-14.87-11-19.82a12.29,12.29,0,1,1,24.58,0c0,4.95-1.73,6.34-11,19.82a1.53,1.53,0,0,1-2.52,0Z"/></g><g id="monitor"><path class="cls-12" d="M387.94,304.51H241.33c-.44,8-8.89,12.9-19.79,12.9H184.77c-11.3,0-20-7-19.81-12.9H20.31c-5.33,0-9.68,2.9-9.68,6.45v6.45c0,14.19,17.42,25.8,38.7,25.8H358.92c21.28,0,38.69-11.61,38.69-25.8V311C397.61,307.41,393.26,304.51,387.94,304.51Z"/><path class="cls-12" d="M334.16,63H74A26,26,0,0,0,48,89V294H360.25V89.08A26.09,26.09,0,0,0,334.16,63Zm10.09,215.35H64V87.66a8.38,8.38,0,0,1,8.38-8.38H335.58A8.68,8.68,0,0,1,344.25,88Z"/></g></svg>