<svg xmlns="http://www.w3.org/2000/svg" viewBox="0 0 430 408"><defs><style>.cls-1{fill:#efefef;}.cls-2{fill:#393;}.cls-3{fill:#78adff;}.cls-4,.cls-5,.cls-8,.cls-9{fill:none;stroke-miterlimit:10;}.cls-4{stroke:#ccc;stroke-width:3px;}.cls-5{stroke:#fff;stroke-width:6px;}.cls-6{fill:#f93;}.cls-7{fill:#fff;}.cls-8,.cls-9{stroke:#e0e0e0;}.cls-8{stroke-width:12px;}.cls-9{stroke-width:10px;}.cls-10{fill:#e0e0e0;}.cls-11{fill:#c00;}.cls-12{fill:#ddd;}.cls-13{fill:#999;}</style></defs><g id="map"><rect class="cls-1" x="78" y="74" width="286" height="209"/><rect class="cls-2" x="275" y="98" width="71" height="87"/><rect class="cls-2" x="158" y="265" width="36" height="21"/><rect class="cls-3" x="194" y="207" width="29" height="24"/><rect class="cls-3" x="228" y="234" width="63" height="27"/><line class="cls-4" x1="247" y1="78" x2="247" y2="143"/><line class="cls-4" x1="319.5" y1="215.5" x2="319.5" y2="280.5"/><line class="cls-4" x1="270.5" y1="123.5" x2="150.5" y2="123.5"/><line class="cls-4" x1="223.5" y1="178.5" x2="141.5" y2="178.5"/><line class="cls-4" x1="346.5" y1="215.5" x2="259.5" y2="215.5"/><line class="cls-4" x1="192.5" y1="220.5" x2="170.5" y2="220.5"/><line class="cls-4" x1="223.5" y1="249.5" x2="196.5" y2="249.5"/><line class="cls-4" x1="246.5" y1="264.5" x2="246.5" y2="278.5"/><line class="cls-5" x1="225" y1="74" x2="225" y2="284"/><line class="cls-5" x1="365" y1="95" x2="110" y2="95"/><line class="cls-5" x1="349" y1="188" x2="225" y2="188"/><line class="cls-5" x1="349" y1="144" x2="349" y2="284"/><line class="cls-5" x1="259" y1="188" x2="259" y2="264"/><line class="cls-5" x1="223" y1="204" x2="108" y2="204"/><line class="cls-5" x1="170" y1="93" x2="170" y2="234"/><line class="cls-5" x1="272" y1="95" x2="272" y2="188"/><line class="cls-5" x1="349" y1="264" x2="115" y2="264"/><line class="cls-5" x1="312" y1="95" x2="312" y2="163"/><line class="cls-5" x1="365" y1="163" x2="272" y2="163"/><rect class="cls-6" x="189" y="74" width="11" height="212"/><rect class="cls-6" x="291" y="74" width="11" height="212"/><rect class="cls-6" x="253.5" y="127.5" width="11" height="212" transform="translate(25.5 492.5) rotate(-90)"/><rect class="cls-6" x="253.5" y="37.5" width="11" height="212" transform="translate(115.5 402.5) rotate(-90)"/></g><g id="Layer_6" data-name="Layer 6"><rect class="cls-7" x="70" y="74" width="112" height="209"/><line class="cls-8" x1="83" y1="115" x2="109" y2="115"/><line class="cls-8" x1="114" y1="115" x2="140" y2="115"/><line class="cls-8" x1="145" y1="115" x2="171" y2="115"/><line class="cls-9" x1="99" y1="143" x2="171" y2="143"/><circle class="cls-10" cx="88" cy="143" r="5"/><line class="cls-9" x1="99" y1="163" x2="171" y2="163"/><circle class="cls-10" cx="88" cy="163" r="5"/><line class="cls-9" x1="99" y1="183" x2="171" y2="183"/><circle class="cls-10" cx="88" cy="183" r="5"/><path class="cls-11" d="M249,175.34c-9.3-13.49-11-14.87-11-19.83a12.29,12.29,0,0,1,24.58,0c0,5-1.72,6.34-11,19.83a1.53,1.53,0,0,1-2.52,0Z"/><path class="cls-11" d="M289.27,234.6c-9.31-13.48-11-14.87-11-19.82a12.29,12.29,0,1,1,24.58,0c0,4.95-1.73,6.34-11,19.82a1.53,1.53,0,0,1-2.52,0Z"/><path class="cls-11" d="M209.27,222.6c-9.31-13.48-11-14.87-11-19.82a12.29,12.29,0,1,1,24.58,0c0,4.95-1.73,6.34-11,19.82a1.53,1.53,0,0,1-2.52,0Z"/></g><g id="monitor"><ellipse class="cls-12" cx="215" cy="348" rx="212" ry="18"/><path class="cls-13" d="M398.94,304.51H252.33c-.44,8-8.89,12.9-19.79,12.9H195.77c-11.3,0-20-7-19.81-12.9H31.31c-5.33,0-9.68,2.9-9.68,6.45v6.45c0,14.19,17.42,25.8,38.7,25.8H369.92c21.28,0,38.69-11.61,38.69-25.8V311C408.61,307.41,404.26,304.51,398.94,304.51Z"/><path class="cls-13" d="M345.16,63H85A26,26,0,0,0,59,89V294H371.25V89.08A26.09,26.09,0,0,0,345.16,63Zm10.09,215.35H75V87.66a8.38,8.38,0,0,1,8.38-8.38H346.58A8.68,8.68,0,0,1,355.25,88Z"/></g></svg>