<svg xmlns="http://www.w3.org/2000/svg" viewBox="0 0 625 443"><defs><style>.cls-1{fill:#efefef;}.cls-2{fill:#393;}.cls-3{fill:#78adff;}.cls-11,.cls-13,.cls-4,.cls-5{fill:none;}.cls-4{stroke:#ccc;stroke-width:3px;}.cls-11,.cls-13,.cls-17,.cls-4,.cls-5{stroke-miterlimit:10;}.cls-13,.cls-5{stroke:#fff;}.cls-5{stroke-width:6px;}.cls-6{fill:#f93;}.cls-7{fill:#fff;}.cls-8{fill:#e0e0e0;}.cls-9{fill:#ccc;}.cls-10,.cls-17{fill:#c00;}.cls-11{stroke:#4353ff;stroke-width:5px;}.cls-12{fill:#333;}.cls-13{stroke-width:8px;}.cls-14{opacity:0.75;}.cls-15{fill:#e1f1ff;}.cls-16{fill:#06c;}.cls-17{stroke:#c00;stroke-width:4px;}</style></defs><g id="map"><polygon class="cls-1" points="603.85 331.72 34.1 331.72 198.05 127 432.88 127 603.85 331.72"/><polygon class="cls-2" points="465.8 192.15 381.05 192.15 363.19 137.39 425.71 137.39 465.8 192.15"/><polygon class="cls-2" points="264.19 339 190.97 339 206.55 293.62 270.42 293.62 264.19 339"/><polygon class="cls-3" points="320.35 240.51 277.71 240.51 281.52 212.78 319.56 212.78 320.35 240.51"/><polygon class="cls-3" points="421.98 244.45 327.93 244.45 330.32 286.26 439.44 286.26 421.98 244.45"/><line class="cls-4" x1="337.08" y1="128.63" x2="342.55" y2="161.56"/><line class="cls-4" x1="451.43" y1="221.89" x2="511.81" y2="325.88"/><line class="cls-4" x1="363.08" y1="150.22" x2="248.61" y2="150.22"/><line class="cls-4" x1="319.4" y1="186.75" x2="224.04" y2="186.75"/><line class="cls-4" x1="488.26" y1="221.89" x2="369.6" y2="221.89"/><line class="cls-4" x1="277.39" y1="227.6" x2="246.67" y2="227.6"/><line class="cls-4" x1="321.92" y1="266.92" x2="278.14" y2="266.92"/><line class="cls-4" x1="363.41" y1="292.68" x2="368.08" y2="321.35"/><line class="cls-5" x1="318.75" y1="127" x2="327.04" y2="334.11"/><line class="cls-5" x1="441.27" y1="136.01" x2="218.76" y2="136.01"/><line class="cls-5" x1="471.33" y1="194.75" x2="321.46" y2="194.75"/><line class="cls-5" x1="446.93" y1="162.19" x2="575.76" y2="334.11"/><line class="cls-5" x1="362.55" y1="194.75" x2="385.3" y2="291.75"/><line class="cls-5" x1="319.47" y1="209.73" x2="170.62" y2="209.73"/><line class="cls-5" x1="271.36" y1="135.1" x2="241.34" y2="244.45"/><line class="cls-5" x1="360.12" y1="136.01" x2="378.26" y2="194.75"/><line class="cls-5" x1="544.02" y1="291.75" x2="131.36" y2="291.75"/><line class="cls-5" x1="395.03" y1="136.01" x2="415.95" y2="174.93"/><line class="cls-5" x1="474" y1="174.93" x2="372.14" y2="174.93"/><polygon class="cls-6" points="276.39 339 254.02 339 289.19 127 298.22 127 276.39 339"/><polygon class="cls-6" points="483.84 339 461.47 339 372.94 127 381.97 127 483.84 339"/><polygon class="cls-6" points="525.93 236.68 538.22 251.3 213.41 251.3 218.85 236.68 525.93 236.68"/><polygon class="cls-6" points="460.19 158.51 465.97 165.37 245.36 165.37 247.91 158.51 460.19 158.51"/><polygon class="cls-7" points="239.78 339 12 339 191.48 127 283.44 127 239.78 339"/><path class="cls-8" d="M185.65,161.56c-1.24,1.74-4.58,3.17-7.45,3.17s-4.08-1.43-2.74-3.17,4.6-3.05,7.37-3.05S186.87,159.86,185.65,161.56Z"/><path class="cls-8" d="M176.09,174.93c-1.43,2-5.11,3.66-8.19,3.66s-4.31-1.66-2.76-3.66,5.13-3.53,8.1-3.53S177.5,173,176.09,174.93Z"/><path class="cls-8" d="M165,190.46c-1.68,2.35-5.77,4.29-9.11,4.29s-4.54-1.94-2.73-4.29,5.77-4.11,9-4.11S166.63,188.17,165,190.46Z"/><polygon class="cls-8" points="209.53 149.4 183.91 149.4 189.14 142.67 213.73 142.67 209.53 149.4"/><polygon class="cls-8" points="239.91 149.4 214.28 149.4 218.28 142.67 242.87 142.67 239.91 149.4"/><polygon class="cls-8" points="268.39 149.4 242.76 149.4 245.61 142.67 270.2 142.67 268.39 149.4"/><polygon class="cls-8" points="264.09 165.37 189.17 165.37 194.65 157.32 266.26 157.32 264.09 165.37"/><polygon class="cls-8" points="260.34 179.34 179.66 179.34 186 170.03 262.84 170.03 260.34 179.34"/><polygon class="cls-8" points="255.96 195.63 168.58 195.63 175.98 184.75 258.88 184.75 255.96 195.63"/><path class="cls-9" d="M434.52,127,614,339H12L191.48,127h243m1.85-4H189.63l-1.2,1.42L9,336.42,3.37,343H622.63l-5.58-6.58-179.48-212-1.2-1.42Z"/></g><g id="Layer_4" data-name="Layer 4"><path class="cls-10" d="M435.1,276.17c-12.89-18.7-15.29-20.62-15.29-27.49a17,17,0,0,1,34.09,0c0,6.87-2.4,8.79-15.29,27.49a2.14,2.14,0,0,1-3.51,0Z"/><path class="cls-10" d="M311.45,260.53c-12.89-18.7-15.29-20.62-15.29-27.49a17,17,0,0,1,34.09,0c0,6.87-2.4,8.79-15.29,27.49a2.14,2.14,0,0,1-3.51,0Z"/><path class="cls-7" d="M310,10.6a58.6,58.6,0,0,1,55.06,38.59c15,41.32-17.85,122.37-17.85,122.37s-77.3-40.94-92.34-82.26a58.6,58.6,0,0,1,20.25-67.22,42.37,42.37,0,1,0,31.23-11.36c1.22-.08,2.44-.12,3.65-.12m0-10c-1.42,0-2.86.05-4.28.14l.09,20A32.36,32.36,0,1,1,282,29.38L269.19,14A69.07,69.07,0,0,0,244.39,49a68.06,68.06,0,0,0,1.09,43.74c6.94,19,25.55,39.66,55.33,61.3a387.3,387.3,0,0,0,41.73,26.38l9.78,5.18,4.16-10.26a385.35,385.35,0,0,0,15-47c8.91-35.71,9.91-63.48,3-82.52A68.61,68.61,0,0,0,310,.6Z"/><circle class="cls-2" cx="309.67" cy="68.68" r="58.66"/><ellipse class="cls-6" cx="310.08" cy="69.72" rx="52.51" ry="40.62" transform="translate(-5.15 110.26) rotate(-20)"/><path class="cls-7" d="M318,91.54a25.63,25.63,0,0,0,15.33-32.86c-6.58-18.07-40.38-36-40.38-36s-14.38,35.44-7.81,53.51A25.62,25.62,0,0,0,318,91.54Z"/><polyline class="cls-11" points="325.73 67.37 308.33 65 301.89 47.32"/><path class="cls-3" d="M306.13,10.29A42.35,42.35,0,1,1,274.9,21.65a58.6,58.6,0,0,0-20.24,67.22c15,41.32,92.33,82.26,92.33,82.26s32.9-81,17.86-122.37A58.59,58.59,0,0,0,306.13,10.29Z"/></g><g id="Layer_2" data-name="Layer 2"><circle class="cls-6" cx="80.41" cy="218.09" r="20.05"/><circle class="cls-3" cx="220.73" cy="218.09" r="20.05"/><path class="cls-3" d="M230.76,248.16h-20A20,20,0,0,0,196.58,254a45.8,45.8,0,0,1,23.53,34.27h20.67a10,10,0,0,0,10-10v-10A20.06,20.06,0,0,0,230.76,248.16Z"/><circle class="cls-2" cx="150.57" cy="213.08" r="35.08"/><path class="cls-2" d="M174.63,258.19H172a48.44,48.44,0,0,1-42.91,0h-2.6a36.09,36.09,0,0,0-36.09,36.08v9a15,15,0,0,0,15,15h90.21a15,15,0,0,0,15-15v-9A36.09,36.09,0,0,0,174.63,258.19Z"/><path class="cls-6" d="M104.56,254a20,20,0,0,0-14.13-5.83H70.38a20.06,20.06,0,0,0-20,20v10a10,10,0,0,0,10,10H81A46,46,0,0,1,104.56,254Z"/></g><g id="Layer_5" data-name="Layer 5"><path class="cls-7" d="M410.12,245.37c11.45,0,17.26-5,25.95,3.72L477,290,517.94,331a44.82,44.82,0,0,1,0,63.19h0a44.82,44.82,0,0,1-63.19,0l-40.93-40.94-40.94-40.93c-8.68-8.69-8.68-19.47-8.68-30.92"/><path class="cls-12" d="M542.76,355.78,438.43,251.45a149.54,149.54,0,0,1-67.08,59.29L479.58,419a44.81,44.81,0,0,0,63.18,0h0A44.81,44.81,0,0,0,542.76,355.78Z"/><line class="cls-13" x1="476.94" y1="416.33" x2="540.13" y2="353.15"/><g class="cls-14"><circle class="cls-15" cx="310.83" cy="174.62" r="130.24"/><path class="cls-16" d="M310.83,54.38a120.25,120.25,0,1,1-85,35.22,119.45,119.45,0,0,1,85-35.22m0-20A140.25,140.25,0,1,0,451.07,174.62,140.25,140.25,0,0,0,310.83,34.38Z"/></g><path class="cls-12" d="M310.83,62.38a112.24,112.24,0,1,1-79.37,32.87,111.51,111.51,0,0,1,79.37-32.87m0-28A140.25,140.25,0,1,0,451.07,174.62,140.25,140.25,0,0,0,310.83,34.38Z"/><path class="cls-17" d="M255.12,138q0-10.68,6.86-21.65T282,98.2Q295.16,91,312.72,91q16.3,0,28.8,6a46.72,46.72,0,0,1,19.29,16.37,40.19,40.19,0,0,1,6.8,22.49,34.78,34.78,0,0,1-3.88,16.77,51.2,51.2,0,0,1-9.22,12.43q-5.34,5.22-19.18,17.6a78,78,0,0,0-6.13,6.13,24.66,24.66,0,0,0-3.43,4.84A23.35,23.35,0,0,0,324,198q-.61,2.19-1.85,7.7-2.15,11.7-13.39,11.7a13.67,13.67,0,0,1-9.84-3.82q-4-3.83-4-11.36a39.93,39.93,0,0,1,10.69-28.52,175.58,175.58,0,0,1,13.05-12.43q7.2-6.3,10.41-9.51a32.3,32.3,0,0,0,5.39-7.14,17.2,17.2,0,0,0,2.2-8.55,19.87,19.87,0,0,0-6.7-15.19q-6.69-6.18-17.26-6.18-12.37,0-18.23,6.24t-9.9,18.39q-3.82,12.72-14.51,12.71a14.28,14.28,0,0,1-10.63-4.44Q255.12,143.2,255.12,138ZM310,261.31a17.7,17.7,0,0,1-12-4.44q-5.13-4.44-5.12-12.43a16,16,0,0,1,4.95-11.92A16.7,16.7,0,0,1,310,227.68a16.53,16.53,0,0,1,16.76,16.76q0,7.88-5.06,12.37A17.1,17.1,0,0,1,310,261.31Z"/></g></svg>