<svg xmlns="http://www.w3.org/2000/svg" viewBox="0 0 430 408"><defs><style>.cls-1{fill:#ddd;}.cls-2{fill:#999;}.cls-3{fill:#fff;}.cls-4{fill:#393;}.cls-5{fill:#f93;}.cls-6{fill:none;stroke:#4353ff;stroke-miterlimit:10;stroke-width:5px;}.cls-7{fill:#78adff;}.cls-8{fill:#333;}</style></defs><g id="monitor"><ellipse class="cls-1" cx="215" cy="348" rx="212" ry="18"/><path class="cls-2" d="M398.94,304.51H252.33c-.44,8-8.89,12.9-19.79,12.9H195.77c-11.3,0-20-7-19.81-12.9H31.31c-5.33,0-9.68,2.9-9.68,6.45v6.45c0,14.19,17.42,25.8,38.7,25.8H369.92c21.28,0,38.69-11.61,38.69-25.8V311C408.61,307.41,404.26,304.51,398.94,304.51Z"/><path class="cls-3" d="M67,286.35V87.66A16.4,16.4,0,0,1,83.37,71.28H346.58A16.69,16.69,0,0,1,363.25,88V286.35Z"/><path class="cls-2" d="M346.58,79.28A8.68,8.68,0,0,1,355.25,88V278.35H75V87.66a8.38,8.38,0,0,1,8.38-8.38H346.58m0-16H83.37A24.41,24.41,0,0,0,59,87.66V294.35H371.25V88a24.7,24.7,0,0,0-24.67-24.68Z"/></g><g id="Layer_4_copy" data-name="Layer 4 copy"><path class="cls-1" d="M174.84,229.1c1.81-3,3.56-5.93,5.37-8.83.83-1.33,1.76-2.59,2.71-3.84a1.89,1.89,0,0,1,1.09-.7q15.15-2.7,30.3-5.36c5.28-.93,10.56-1.84,15.83-2.8.69-.13,1,0,1.33.66q8.85,19.54,17.73,39.09a10.92,10.92,0,0,1,.69,1.83,2.8,2.8,0,0,1-2.23,3.62,7.09,7.09,0,0,1-1.46.15q-14.65,0-29.32,0a2.87,2.87,0,0,1-1.39-.32q-20.06-11.55-40.08-23.12Z"/><path class="cls-1" d="M194.61,252.93H90.35c-3.87,0-5.07-1.9-3.46-5.44q3.4-7.44,6.76-14.91a1.83,1.83,0,0,1,1.55-1.21q22.11-3.87,44.21-7.79a3.69,3.69,0,0,0,.58-.09c2.31-.89,4.19-.06,6.2,1.14,6.47,3.88,13,7.6,19.58,11.37l28,16.17.9.53Z"/><path class="cls-1" d="M132.58,216.83l-34.52,6.09c3.17-7,6.24-13.73,9.37-20.61Z"/><path class="cls-1" d="M194.06,195.11,188.32,208l39.45-7.89-.06-.1a9.76,9.76,0,0,0-8.47-4.92Z"/><path class="cls-1" d="M116.61,195.11h15a8.9,8.9,0,0,1,5.24,1.71l21.32,15.5-6.56,1.41a8.87,8.87,0,0,1-6.5-1.11Z"/></g><g id="Layer_5" data-name="Layer 5"><circle class="cls-4" cx="149.87" cy="143.02" r="39.3"/><ellipse class="cls-5" cx="150.14" cy="143.72" rx="35.18" ry="27.21" transform="translate(-40.1 60.02) rotate(-20)"/><path class="cls-3" d="M155.46,158.34a17.16,17.16,0,0,0,10.27-22c-4.41-12.1-27-24.1-27-24.1S129,136,133.45,148.07A17.16,17.16,0,0,0,155.46,158.34Z"/><polyline class="cls-6" points="160.63 142.14 148.97 140.55 144.66 128.71"/><path class="cls-7" d="M147.5,103.9a28.38,28.38,0,1,1-20.93,7.62,39.24,39.24,0,0,0-13.56,45c10.08,27.68,61.86,55.12,61.86,55.12s22-54.31,12-82A39.26,39.26,0,0,0,147.5,103.9Z"/></g><g id="Layer_2_copy" data-name="Layer 2 copy"><path class="cls-3" d="M236.41,150.05a20,20,0,1,1-20,20,20.06,20.06,0,0,1,20-20m0-8a28,28,0,1,0,28,28,28.08,28.08,0,0,0-28-28Z"/><path class="cls-3" d="M306.57,130a35.08,35.08,0,1,1-35.08,35.08A35.06,35.06,0,0,1,306.57,130m0-8a43.08,43.08,0,1,0,43.08,43.08A43.13,43.13,0,0,0,306.57,122Z"/><path class="cls-3" d="M330.63,190.19a36.09,36.09,0,0,1,36.08,36.08v9a15,15,0,0,1-15,15H261.47a15,15,0,0,1-15-15v-9a36.09,36.09,0,0,1,36.09-36.08h2.6a48.44,48.44,0,0,0,42.91,0h2.6m0-8H326.2l-1.64.79a40.43,40.43,0,0,1-36,0l-1.64-.78h-4.41a44.13,44.13,0,0,0-44.09,44.08v9a23.07,23.07,0,0,0,23,23h90.21a23.06,23.06,0,0,0,23-23v-9a44.12,44.12,0,0,0-44.08-44.08Z"/><path class="cls-3" d="M246.43,180.16A20,20,0,0,1,260.56,186,46,46,0,0,0,237,220.26H216.36a10,10,0,0,1-10-10v-10a20.07,20.07,0,0,1,20-20.05h20m0-8h-20a28.08,28.08,0,0,0-28,28.05v10a18,18,0,0,0,18,18H244l.92-6.95A38.22,38.22,0,0,1,264.4,193l9.4-5.15-7.61-7.54a27.91,27.91,0,0,0-19.76-8.15Z"/></g><g id="Layer_2" data-name="Layer 2"><circle class="cls-5" cx="236.41" cy="150.09" r="20.05"/><circle class="cls-4" cx="306.57" cy="145.08" r="35.08"/><path class="cls-4" d="M330.63,190.19H328a48.44,48.44,0,0,1-42.91,0h-2.6a36.09,36.09,0,0,0-36.09,36.08v9a15,15,0,0,0,15,15h90.21a15,15,0,0,0,15-15v-9A36.09,36.09,0,0,0,330.63,190.19Z"/><path class="cls-5" d="M260.56,186a20,20,0,0,0-14.13-5.83H226.38a20.06,20.06,0,0,0-20,20.05v10a10,10,0,0,0,10,10H237A46,46,0,0,1,260.56,186Z"/><path class="cls-8" d="M274.92,100.35a24.61,24.61,0,0,0-36.81,21,1.76,1.76,0,0,1-1.35,1.7L228.59,125a1.76,1.76,0,0,1-2.16-1.62,36.32,36.32,0,0,1,54.64-33l3.88-6.3a3.51,3.51,0,0,1,6.41,1l4.53,19.1a3.51,3.51,0,0,1-2.61,4.23L274.18,113a3.51,3.51,0,0,1-3.8-5.27ZM253.08,210.19l19.1-4.53a3.51,3.51,0,0,1,3.8,5.26l-4.53,7.36a24.6,24.6,0,0,0,36.8-21,1.75,1.75,0,0,1,1.35-1.69l8.17-1.94a1.75,1.75,0,0,1,2.16,1.62,36.31,36.31,0,0,1-54.63,33l-3.88,6.3a3.52,3.52,0,0,1-6.42-1l-4.53-19.1A3.51,3.51,0,0,1,253.08,210.19Z"/></g></svg>